<?xml version="1.0" standalone="no"?>
<!DOCTYPE svg PUBLIC "-//W3C//DTD SVG 20010904//EN"
 "http://www.w3.org/TR/2001/REC-SVG-20010904/DTD/svg10.dtd">
<svg version="1.0" xmlns="http://www.w3.org/2000/svg"
 width="4005.000000pt" height="745.000000pt" viewBox="0 0 4005.000000 745.000000"
 preserveAspectRatio="xMidYMid meet">

<g transform="translate(0.000000,745.000000) scale(0.100000,-0.100000)"
fill="#000000" stroke="none">
<path d="M6930 7001 l-144 -116 -238 -380 c-131 -209 -271 -435 -312 -501
l-74 -121 51 -7 c96 -11 92 -13 148 79 29 47 54 85 56 85 2 0 -1 -9 -7 -19
-14 -28 -13 -31 16 -31 14 0 70 -9 126 -21 55 -11 104 -17 108 -12 14 16 425
1152 418 1158 -2 2 -68 -50 -148 -114z"/>
<path d="M37485 6914 c-744 -31 -1255 -168 -1620 -434 -149 -108 -303 -297
-384 -471 -116 -250 -170 -600 -142 -929 59 -680 390 -1091 1056 -1309 334
-109 669 -157 1170 -168 1380 -28 2174 330 2404 1084 134 440 100 987 -84
1353 -255 505 -830 789 -1740 859 -145 11 -536 20 -660 15z m660 -804 c402
-30 615 -98 761 -244 147 -147 203 -341 191 -666 -15 -430 -176 -641 -565
-741 -308 -79 -1160 -91 -1572 -23 -326 54 -536 198 -618 423 -46 129 -55 194
-55 401 0 207 9 272 55 401 101 277 364 411 878 448 170 12 764 12 925 1z"/>
<path d="M1760 6873 c-87 -6 -256 -35 -351 -59 -545 -136 -963 -477 -1208
-984 -303 -627 -259 -1394 113 -1984 l56 -88 -45 -69 c-289 -439 -390 -990
-280 -1534 32 -159 91 -330 169 -490 299 -610 830 -978 1521 -1055 56 -6 644
-10 1546 -10 1378 0 1457 1 1464 18 20 51 545 1521 545 1526 0 3 -771 7 -1712
8 l-1713 3 -58 23 c-109 44 -185 121 -228 229 -20 49 -23 77 -24 178 0 118 1
122 35 190 40 79 85 120 177 157 l58 23 890 5 889 5 483 770 c265 424 482 773
482 778 1 4 -604 7 -1343 7 -1279 0 -1347 1 -1404 18 -124 39 -204 122 -247
255 -63 196 -9 391 131 473 106 62 -7 58 1764 62 l1615 3 460 736 c253 405
470 753 483 775 l23 38 -2123 -2 c-1168 -1 -2143 -3 -2168 -5z"/>
<path d="M14360 5255 l0 -1605 1552 2 1553 3 297 385 c164 212 298 388 298
393 0 4 -616 7 -1370 7 l-1370 0 0 250 0 250 1013 0 1012 1 263 337 263 337
-1275 3 -1276 2 0 225 0 225 1064 0 1065 0 293 383 c162 210 298 388 302 395
6 9 -365 12 -1838 12 l-1846 0 0 -1605z"/>
<path d="M18500 5255 l0 -1605 1423 0 1422 1 300 386 c165 213 302 390 303
395 2 4 -559 8 -1247 8 l-1251 0 0 1210 0 1210 -475 0 -475 0 0 -1605z"/>
<path d="M22380 5255 l0 -1605 1549 0 1549 0 301 389 c166 215 301 392 301
395 0 3 -616 6 -1370 6 l-1370 0 0 250 0 250 1012 2 1012 3 262 335 263 335
-1275 3 -1274 2 0 225 0 225 1063 0 1062 0 275 357 c151 196 288 373 303 395
l29 38 -1846 0 -1846 0 0 -1605z"/>
<path d="M26833 6838 c-11 -13 -149 -191 -306 -395 l-286 -373 749 0 750 0 2
-1207 3 -1208 478 -3 477 -2 0 1210 0 1210 589 0 590 0 300 390 c166 214 301
392 301 395 0 3 -816 5 -1813 5 l-1814 0 -20 -22z"/>
<path d="M31142 6798 c-28 -35 -165 -211 -306 -393 l-256 -330 1478 -5 1477
-5 78 -22 c214 -61 326 -184 329 -361 2 -119 -22 -180 -97 -254 -53 -53 -130
-96 -230 -130 l-70 -23 -1497 -3 -1498 -2 0 -810 0 -810 475 0 475 0 0 435 0
435 798 0 797 -1 365 -434 364 -435 634 0 c603 0 634 1 621 18 -8 9 -132 141
-275 292 -311 327 -591 604 -693 685 l-73 59 79 18 c246 54 462 184 596 361
205 269 269 628 171 966 -106 366 -475 650 -974 750 -276 56 -232 54 -1522 58
l-1197 4 -49 -63z"/>
<path d="M5812 1758 c-492 -1370 -621 -1732 -618 -1735 1 -2 52 35 112 82 106
84 110 88 145 167 19 44 46 90 60 102 28 24 757 1181 829 1316 12 22 11 22
-53 15 -39 -4 -94 -2 -137 5 -60 10 -74 10 -81 -1 -15 -24 -10 -3 12 46 11 25
19 48 17 49 -1 1 -50 15 -108 30 -58 15 -112 30 -121 33 -12 3 -25 -20 -57
-109z"/>
</g>
</svg>
