<?xml version="1.0" standalone="no"?>
<!DOCTYPE svg PUBLIC "-//W3C//DTD SVG 20010904//EN"
 "http://www.w3.org/TR/2001/REC-SVG-20010904/DTD/svg10.dtd">
<svg version="1.0" xmlns="http://www.w3.org/2000/svg"
 width="4005.000000pt" height="745.000000pt" viewBox="0 0 4005.000000 745.000000"
 preserveAspectRatio="xMidYMid meet">

<g transform="translate(0.000000,745.000000) scale(0.100000,-0.100000)"
fill="#000000" stroke="none">
<path d="M6930 7001 l-144 -116 -238 -380 c-131 -209 -271 -435 -312 -501
l-74 -121 51 -7 c96 -11 92 -13 148 79 29 47 54 85 56 85 2 0 -1 -9 -7 -19
-14 -28 -13 -31 16 -31 14 0 70 -9 126 -21 55 -11 104 -17 108 -12 14 16 425
1152 418 1158 -2 2 -68 -50 -148 -114z"/>
<path d="M5812 1758 c-492 -1370 -621 -1732 -618 -1735 1 -2 52 35 112 82 106
84 110 88 145 167 19 44 46 90 60 102 28 24 757 1181 829 1316 12 22 11 22
-53 15 -39 -4 -94 -2 -137 5 -60 10 -74 10 -81 -1 -15 -24 -10 -3 12 46 11 25
19 48 17 49 -1 1 -50 15 -108 30 -58 15 -112 30 -121 33 -12 3 -25 -20 -57
-109z"/>
</g>
</svg>
